<svg width="31" height="31" viewBox="0 0 31 31" fill="none" xmlns="http://www.w3.org/2000/svg">
<path d="M5.90938 5.90931C6.27271 5.54609 6.76543 5.34204 7.27919 5.34204C7.79294 5.34204 8.28567 5.54609 8.649 5.90931L15.5 12.7603L22.351 5.90931C22.7164 5.55638 23.2058 5.36109 23.7138 5.36551C24.2218 5.36992 24.7078 5.57369 25.067 5.93292C25.4263 6.29214 25.63 6.77809 25.6344 7.2861C25.6388 7.79411 25.4436 8.28352 25.0906 8.64894L18.2396 15.4999L25.0906 22.3509C25.4436 22.7164 25.6388 23.2058 25.6344 23.7138C25.63 24.2218 25.4263 24.7077 25.067 25.067C24.7078 25.4262 24.2218 25.63 23.7138 25.6344C23.2058 25.6388 22.7164 25.4435 22.351 25.0906L15.5 18.2396L8.649 25.0906C8.28358 25.4435 7.79417 25.6388 7.28616 25.6344C6.77815 25.63 6.29221 25.4262 5.93298 25.067C5.57375 24.7077 5.36998 24.2218 5.36557 23.7138C5.36116 23.2058 5.55644 22.7164 5.90938 22.3509L12.7604 15.4999L5.90938 8.64894C5.54615 8.28561 5.3421 7.79288 5.3421 7.27913C5.3421 6.76537 5.54615 6.27265 5.90938 5.90931Z" fill="white"/>
</svg>
