<svg width="18" height="18" viewBox="0 0 18 18" fill="none" xmlns="http://www.w3.org/2000/svg">
<path d="M3.31499 15.4342C3.21094 15.4341 3.10806 15.4122 3.0129 15.3701C2.91774 15.328 2.83238 15.2666 2.76224 15.1897C2.69084 15.1135 2.63636 15.0231 2.60236 14.9243C2.56837 14.8256 2.55563 14.7208 2.56499 14.6167L2.74874 12.5962L11.2372 4.11074L13.89 6.76274L5.40374 15.2475L3.38324 15.4312C3.36055 15.4333 3.33778 15.4343 3.31499 15.4342V15.4342ZM14.4195 6.23249L11.7675 3.58049L13.3582 1.98974C13.4279 1.92001 13.5106 1.86469 13.6017 1.82695C13.6927 1.7892 13.7903 1.76978 13.8889 1.76978C13.9874 1.76978 14.085 1.7892 14.1761 1.82695C14.2671 1.86469 14.3498 1.92001 14.4195 1.98974L16.0102 3.58049C16.08 3.65015 16.1353 3.73286 16.173 3.82391C16.2108 3.91496 16.2302 4.01255 16.2302 4.11112C16.2302 4.20968 16.2108 4.30727 16.173 4.39832C16.1353 4.48937 16.08 4.57209 16.0102 4.64174L14.4202 6.23174L14.4195 6.23249V6.23249Z" fill="#FBFBFB"/>
</svg>
