<svg width="28" height="28" viewBox="0 0 28 28" fill="none" xmlns="http://www.w3.org/2000/svg">
<path d="M25.7633 13.2945C24.8021 11.2694 23.6582 9.61788 22.3317 8.33984L20.9404 9.73109C22.0749 10.8153 23.0631 12.2336 23.9176 14C21.6426 18.7086 18.4133 20.9453 14 20.9453C12.6753 20.9453 11.4552 20.7413 10.3395 20.3334L8.83207 21.8408C10.3815 22.5563 12.1042 22.9141 14 22.9141C19.2555 22.9141 23.1766 20.1769 25.7633 14.7027C25.8673 14.4826 25.9212 14.2421 25.9212 13.9986C25.9212 13.7551 25.8673 13.5147 25.7633 13.2945V13.2945ZM24.0251 4.52703L22.8594 3.35999C22.8391 3.33966 22.815 3.32352 22.7884 3.31251C22.7619 3.3015 22.7334 3.29584 22.7046 3.29584C22.6759 3.29584 22.6474 3.3015 22.6209 3.31251C22.5943 3.32352 22.5702 3.33966 22.5499 3.35999L19.5593 6.34921C17.9105 5.50703 16.0574 5.08593 14 5.08593C8.74457 5.08593 4.82347 7.82304 2.23675 13.2973C2.13278 13.5174 2.07886 13.7579 2.07886 14.0014C2.07886 14.2448 2.13278 14.4853 2.23675 14.7055C3.27017 16.882 4.51431 18.6266 5.96918 19.9393L3.07566 22.832C3.03467 22.873 3.01164 22.9287 3.01164 22.9867C3.01164 23.0446 3.03467 23.1003 3.07566 23.1413L4.24297 24.3086C4.28399 24.3496 4.3396 24.3726 4.39759 24.3726C4.45559 24.3726 4.5112 24.3496 4.55222 24.3086L24.0251 4.83656C24.0454 4.81624 24.0615 4.79211 24.0726 4.76556C24.0836 4.739 24.0892 4.71054 24.0892 4.68179C24.0892 4.65304 24.0836 4.62458 24.0726 4.59802C24.0615 4.57147 24.0454 4.54734 24.0251 4.52703ZM4.08246 14C6.36019 9.2914 9.58949 7.05468 14 7.05468C15.4914 7.05468 16.8473 7.31062 18.0775 7.83097L16.1553 9.75324C15.2449 9.26751 14.2025 9.08724 13.1819 9.23903C12.1613 9.39081 11.2165 9.8666 10.4869 10.5962C9.75727 11.3258 9.28148 12.2706 9.12969 13.2913C8.97791 14.3119 9.15818 15.3542 9.6439 16.2646L7.36289 18.5456C6.10043 17.4314 5.01215 15.9217 4.08246 14ZM10.8282 14C10.8286 13.5178 10.9428 13.0426 11.1615 12.6128C11.3802 12.1831 11.6971 11.811 12.0866 11.5268C12.4761 11.2425 12.9271 11.0542 13.4031 10.977C13.879 10.8999 14.3665 10.9361 14.8258 11.0827L10.9734 14.9352C10.8768 14.6328 10.8278 14.3174 10.8282 14V14Z" fill="white"/>
<path d="M13.8906 17.0625C13.796 17.0625 13.7027 17.0581 13.6103 17.0497L12.166 18.494C13.0347 18.8266 13.9812 18.9006 14.891 18.7068C15.8008 18.5131 16.635 18.0599 17.2927 17.4022C17.9505 16.7444 18.4036 15.9102 18.5974 15.0004C18.7911 14.0906 18.7172 13.1441 18.3845 12.2755L16.9402 13.7197C16.9487 13.8122 16.9531 13.9054 16.9531 14C16.9533 14.4023 16.8742 14.8006 16.7204 15.1722C16.5666 15.5439 16.341 15.8816 16.0566 16.166C15.7722 16.4504 15.4345 16.676 15.0628 16.8298C14.6912 16.9837 14.2928 17.0627 13.8906 17.0625V17.0625Z" fill="white"/>
</svg>
