<svg width="166" height="75" viewBox="0 0 166 75" fill="none" xmlns="http://www.w3.org/2000/svg">
<path d="M114.641 15.3924C114.632 15.1673 114.504 14.9501 114.292 14.804L93.033 0.187126C92.3982 -0.249562 91.3911 0.128908 91.3911 0.801284V9.39939C91.3911 9.61316 91.496 9.81818 91.6829 9.96931L94.8716 12.5487C95.4866 13.0459 96.5728 12.6815 96.5728 11.9788V10.2606L103.028 14.612H77.5065C76.9563 14.612 76.51 14.9729 76.51 15.4181C76.51 15.8632 76.9561 16.2242 77.5065 16.2242H112.65V34.3878H106.206C105.655 34.3878 105.209 34.7487 105.209 35.1939C105.209 35.6391 105.655 36 106.206 36H113.646C114.197 36 114.643 35.6392 114.643 35.1939V15.4181C114.643 15.4095 114.641 15.401 114.641 15.3924ZM106.141 14.6122L96.2144 7.92051C95.5778 7.49116 94.5799 7.87074 94.5799 8.53979V10.0331L93.3841 9.06577V2.54452L110.935 14.6123H106.141V14.6122Z" fill="#F43E89"/>
<path d="M101.954 34.3878H88.2206L83.7128 27.095C83.3527 26.5125 82.2903 26.5125 81.9303 27.095L77.4226 34.3878H52.9929V16.2242H73.2551C73.8054 16.2242 74.2516 15.8633 74.2516 15.4181C74.2516 14.9728 73.8055 14.6119 73.2551 14.6119H62.6144L69.0697 10.2606V11.9788C69.0697 12.6812 70.156 13.0465 70.7708 12.5487L73.9595 9.96926C74.1465 9.81814 74.2514 9.61312 74.2514 9.39935V0.801237C74.2514 0.128861 73.2444 -0.249709 72.6096 0.187079L51.3512 14.804C51.1313 14.9552 51 15.1848 51 15.4181V35.1938C51 35.6389 51.4461 35.9999 51.9965 35.9999H78.0383C78.4158 35.9999 78.7608 35.8273 78.9295 35.5542L82.8214 29.258L86.7133 35.5544C86.8823 35.8274 87.2271 36 87.6046 36H101.954C102.504 36 102.951 35.6391 102.951 35.1939C102.951 34.7486 102.505 34.3878 101.954 34.3878ZM72.2586 2.54437V9.06552L71.0628 10.0328V8.53955C71.0628 7.87059 70.0653 7.49101 69.4285 7.92026L59.5015 14.6119H54.7074L72.2586 2.54437Z" fill="#F43E89"/>
<path d="M108.332 18.911H88.1361C87.5856 18.911 87.1395 19.2719 87.1395 19.7171V26.4406C87.1395 26.5658 87.1756 26.6892 87.2447 26.8011L89.998 31.2552C90.1668 31.5283 90.5117 31.7009 90.8892 31.7009H108.332C108.882 31.7009 109.328 31.34 109.328 30.8948V19.7171C109.328 19.272 108.882 18.911 108.332 18.911ZM107.335 30.0887H91.505L89.1326 26.2504V20.5233H107.335V30.0887Z" fill="#F43E89"/>
<path d="M77.5069 18.911H57.3112C56.7609 18.911 56.3147 19.2719 56.3147 19.7171V30.8948C56.3147 31.3399 56.7608 31.7009 57.3112 31.7009H74.7536C75.1311 31.7009 75.4762 31.5283 75.6448 31.2552L78.3981 26.8011C78.4674 26.6891 78.5034 26.5658 78.5034 26.4406V19.7171C78.5034 19.272 78.0573 18.911 77.5069 18.911ZM76.5105 26.2504L74.1379 30.0887H58.3078V20.5232H76.5104V26.2504H76.5105Z" fill="#F43E89"/>
<path d="M103.722 25.166C103.333 24.8511 102.702 24.8511 102.313 25.166L99.1236 27.7454C98.7695 28.0318 98.7548 28.4918 99.054 28.81C99.4105 29.1891 100.116 29.2223 100.533 28.8852L103.722 26.3058C104.111 25.9911 104.111 25.4807 103.722 25.166Z" fill="#F43E89"/>
<path d="M102.659 21.7266C102.27 21.4118 101.639 21.4118 101.25 21.7266L93.8091 27.7453C93.1952 28.2418 93.6422 29.1214 94.5136 29.1214C94.7686 29.1214 95.0238 29.0427 95.2183 28.8853L102.659 22.8666C103.048 22.5517 103.048 22.0413 102.659 21.7266Z" fill="#F43E89"/>
<path d="M71.8338 25.166C71.4448 24.8513 70.8137 24.8513 70.4246 25.166L67.2359 27.7454C66.873 28.0388 66.8489 28.5236 67.1828 28.8391C67.5555 29.1911 68.2396 29.2132 68.645 28.8853L71.8337 26.3059C72.223 25.9911 72.223 25.4806 71.8338 25.166Z" fill="#F43E89"/>
<path d="M70.7708 21.7266C70.3816 21.4118 69.7506 21.4118 69.3615 21.7266L61.9211 27.7453C61.5582 28.0387 61.5341 28.5236 61.868 28.839C62.2406 29.191 62.9248 29.2132 63.3301 28.8853L70.7706 22.8666C71.1598 22.5518 71.1598 22.0414 70.7708 21.7266Z" fill="#F43E89"/>
<path d="M0.875 56.0625C0.875 53.6979 1.22396 51.5938 1.92188 49.75C2.63021 47.8958 3.73438 46.4323 5.23438 45.3594C6.73438 44.2865 8.63021 43.75 10.9219 43.75C12.4844 43.75 14.1354 43.9531 15.875 44.3594C16.4375 44.6927 16.9271 45.0417 17.3438 45.4062C17.7708 45.7604 18.1771 46.1927 18.5625 46.7031C18.5625 47.4427 18.4635 48.4271 18.2656 49.6562C18.0677 50.875 17.8177 52.0156 17.5156 53.0781C17.224 54.1302 16.9427 54.8125 16.6719 55.125C16.401 55.2604 16.1719 55.3542 15.9844 55.4062C15.7969 55.4479 15.5052 55.4688 15.1094 55.4688C14.6198 55.4688 14.1615 55.4323 13.7344 55.3594C13.3073 55.2865 12.9844 55.1875 12.7656 55.0625L12.2188 49.7969C11.4792 49.5885 10.4531 49.4844 9.14062 49.4844C8.78646 49.4844 8.52604 49.4896 8.35938 49.5C7.91146 50.9375 7.66146 52.8698 7.60938 55.2969C7.59896 55.5885 7.59375 56.0312 7.59375 56.625C7.59375 58.0208 7.66667 59.151 7.8125 60.0156C7.94792 60.8281 8.09375 61.4375 8.25 61.8438C8.40625 62.25 8.67708 62.5625 9.0625 62.7812C9.45833 63 10.0469 63.1094 10.8281 63.1094C11.8802 63.1094 12.849 62.9583 13.7344 62.6562C14.6302 62.3438 15.6042 61.8906 16.6562 61.2969C17.0521 61.724 17.3542 62.0729 17.5625 62.3438C17.7812 62.6146 17.9792 62.9479 18.1562 63.3438C18.3438 63.7396 18.4688 64.1927 18.5312 64.7031C18.3646 65.0469 17.9219 65.5052 17.2031 66.0781C16.4844 66.651 15.5417 67.1667 14.375 67.625C13.2083 68.0833 11.901 68.3125 10.4531 68.3125C7.06771 68.3125 4.625 67.2552 3.125 65.1406C1.625 63.026 0.875 60 0.875 56.0625ZM20.8281 45.5781C20.8281 44.6615 21.125 43.9167 21.7188 43.3438C22.3229 42.7708 23.2812 42.4844 24.5938 42.4844C25.9062 42.4844 26.8594 42.7708 27.4531 43.3438C28.0573 43.9167 28.3594 44.6615 28.3594 45.5781C28.3594 46.099 28.1771 46.5781 27.8125 47.0156C27.4583 47.4531 26.9896 47.8021 26.4062 48.0625C25.8229 48.3125 25.2188 48.4375 24.5938 48.4375C23.9167 48.4375 23.2865 48.2917 22.7031 48C22.1302 47.6979 21.6719 47.3229 21.3281 46.875C20.9948 46.4271 20.8281 45.9948 20.8281 45.5781ZM20.0625 54.5156C19.9271 54.0052 19.8333 53.5417 19.7812 53.125C19.7292 52.6979 19.7031 52.2552 19.7031 51.7969L19.7188 51.3594C19.9375 51.0781 20.276 50.7969 20.7344 50.5156C21.2031 50.224 21.7448 49.9792 22.3594 49.7812C22.9844 49.5833 23.6302 49.4844 24.2969 49.4844C25.7552 49.4844 26.7917 49.8125 27.4062 50.4688C28.0208 51.125 28.3281 52.1458 28.3281 53.5312C28.3281 54.3646 28.2083 55.4531 27.9688 56.7969C27.7396 58.1406 27.4583 59.4479 27.125 60.7188C26.8021 61.9792 26.5208 62.8802 26.2812 63.4219L26.3125 63.4531L28.625 62.6094C29.0417 62.9635 29.3542 63.3542 29.5625 63.7812C29.7812 64.2083 29.9219 64.7031 29.9844 65.2656C29.9844 65.3385 29.7552 65.6406 29.2969 66.1719C28.8385 66.6927 28.2292 67.1823 27.4688 67.6406C26.7188 68.0885 25.849 68.3125 24.8594 68.3125C23.8594 68.3125 23.0469 68.0417 22.4219 67.5C21.8073 66.9583 21.5 66.0312 21.5 64.7188C21.5 63.1875 21.5417 61.5625 21.625 59.8438C21.7083 58.125 21.8385 56.4583 22.0156 54.8438L20.0625 54.5156ZM32.7969 62.5625C32.7969 60.8646 32.8177 59.5833 32.8594 58.7188C32.901 57.8438 33.0104 56.5625 33.1875 54.875L31.375 54.6406C31.1562 53.9635 31.0104 53.3594 30.9375 52.8281C30.875 52.2969 30.8438 51.6094 30.8438 50.7656C31.0104 50.6198 31.2865 50.4479 31.6719 50.25C32.0677 50.0417 32.5365 49.8646 33.0781 49.7188C33.6198 49.5625 34.1667 49.4844 34.7188 49.4844C35.9792 49.4844 36.8698 49.7552 37.3906 50.2969C37.9219 50.8385 38.1875 51.651 38.1875 52.7344C38.1875 53.3385 38.099 54.1562 37.9219 55.1875C37.6302 56.8438 37.4844 57.7135 37.4844 57.7969C37.4844 57.849 37.5208 57.901 37.5938 57.9531C37.6667 57.9948 37.7448 58.0156 37.8281 58.0156C37.9219 58.0156 37.9844 57.9792 38.0156 57.9062C38.4323 56.25 38.849 54.8646 39.2656 53.75C39.6823 52.6354 40.3125 51.6458 41.1562 50.7812C42 49.9167 43.0938 49.4844 44.4375 49.4844C46.1042 49.4844 47.3021 49.9948 48.0312 51.0156C48.7604 52.026 49.125 53.3021 49.125 54.8438C49.125 56.2188 48.9635 57.5469 48.6406 58.8281C48.3177 60.099 47.9167 61.4271 47.4375 62.8125C47.4583 62.7604 47.3854 62.9635 47.2188 63.4219L47.25 63.4531L49.5312 62.5156C50.3438 63.2135 50.8177 64.1406 50.9531 65.2969C50.9531 65.3698 50.7188 65.6667 50.25 66.1875C49.7917 66.7083 49.1823 67.1927 48.4219 67.6406C47.6615 68.0885 46.7865 68.3125 45.7969 68.3125C44.8073 68.3125 44 68.0469 43.375 67.5156C42.75 66.9844 42.4375 66.0781 42.4375 64.7969C42.4375 63.776 42.4792 62.4115 42.5625 60.7031C42.6458 58.9948 42.7292 57.6198 42.8125 56.5781C42.5417 56.2865 42.2083 56.1302 41.8125 56.1094C41.4479 56.5781 40.9115 57.5156 40.2031 58.9219C39.4948 60.3281 38.9948 61.3802 38.7031 62.0781C38.6823 62.224 38.6719 62.3646 38.6719 62.5C38.6719 63.0208 38.75 63.724 38.9062 64.6094C39.0625 65.4844 39.2552 66.3021 39.4844 67.0625C39.2969 67.4167 38.9115 67.7135 38.3281 67.9531C37.7448 68.1927 37.026 68.3125 36.1719 68.3125C35.401 68.3125 34.7812 68.25 34.3125 68.125C33.8542 68 33.5312 67.8698 33.3438 67.7344C33.1562 67.5885 33.0625 67.5 33.0625 67.4688C33.0521 67.375 33.026 67.1302 32.9844 66.7344C32.9427 66.3281 32.901 65.7656 32.8594 65.0469C32.8177 64.3177 32.7969 63.4896 32.7969 62.5625ZM52.1406 58.9219C52.1406 57.1198 52.4427 55.5104 53.0469 54.0938C53.651 52.6771 54.5833 51.5573 55.8438 50.7344C57.1146 49.901 58.6979 49.4844 60.5938 49.4844C61.5833 49.4844 62.5729 49.6042 63.5625 49.8438C64.5521 50.0729 65.3906 50.4583 66.0781 51C66.7135 51.5104 67.1719 52.1875 67.4531 53.0312C67.7448 53.8646 67.8906 54.7917 67.8906 55.8125C67.8906 56.4896 67.8333 57.1823 67.7188 57.8906C67.5938 58.099 67.349 58.375 66.9844 58.7188C66.6198 59.0521 66.1927 59.3802 65.7031 59.7031C65.2135 60.026 64.7396 60.276 64.2812 60.4531C63.8438 60.4844 63.3906 60.5 62.9219 60.5C62.099 60.5 61.2656 60.4635 60.4219 60.3906C59.5781 60.3177 58.8385 60.2344 58.2031 60.1406C58.2865 61.026 58.5573 61.7969 59.0156 62.4531C59.474 63.1094 60.2031 63.4375 61.2031 63.4375C61.2969 63.4375 61.4479 63.4271 61.6562 63.4062C62.2917 63.3438 63.0312 63.1771 63.875 62.9062C64.7292 62.625 65.5781 62.3021 66.4219 61.9375C66.8177 62.3333 67.1094 62.7292 67.2969 63.125C67.4844 63.5208 67.6146 64.0885 67.6875 64.8281C67.3646 65.2031 66.8385 65.6615 66.1094 66.2031C65.3906 66.7448 64.5104 67.2344 63.4688 67.6719C62.4271 68.099 61.3385 68.3125 60.2031 68.3125C58.4948 68.3125 57.0312 67.901 55.8125 67.0781C54.6042 66.2448 53.6875 65.1198 53.0625 63.7031C52.4479 62.276 52.1406 60.6823 52.1406 58.9219ZM62.2031 55.3281C62.0573 55.1719 61.8125 55.0521 61.4688 54.9688C61.125 54.875 60.7656 54.8281 60.3906 54.8281C60.0885 54.8281 59.7812 54.8542 59.4688 54.9062C59.1667 54.9583 58.9844 55.0156 58.9219 55.0781C58.5677 55.776 58.3438 56.5677 58.25 57.4531L62.4219 57.0469L62.2031 55.3281ZM69.6719 54.5938C69.4531 53.9167 69.3073 53.3125 69.2344 52.7812C69.1719 52.25 69.1406 51.5625 69.1406 50.7188C69.3073 50.5729 69.5781 50.4062 69.9531 50.2188C70.3281 50.0208 70.776 49.849 71.2969 49.7031C71.8177 49.5573 72.3542 49.4844 72.9062 49.4844C74.1667 49.4844 75.0573 49.7552 75.5781 50.2969C76.1094 50.8385 76.375 51.651 76.375 52.7344C76.375 53.3385 76.2865 54.1562 76.1094 55.1875C75.8177 56.8438 75.6719 57.7135 75.6719 57.7969C75.6719 57.849 75.7083 57.901 75.7812 57.9531C75.8542 57.9948 75.9323 58.0156 76.0156 58.0156C76.1094 58.0156 76.1719 57.9792 76.2031 57.9062L76.3594 57.2812L76.7031 55.9531C77.2135 54.026 77.974 52.4688 78.9844 51.2812C79.9948 50.0833 81.2656 49.4844 82.7969 49.4844C83.9427 49.4844 84.875 49.7344 85.5938 50.2344C86.3229 50.724 86.849 51.375 87.1719 52.1875C87.4948 52.9896 87.6562 53.875 87.6562 54.8438C87.6562 56.1562 87.5312 57.6302 87.2812 59.2656C87.0312 60.8906 86.6979 62.4115 86.2812 63.8281C85.875 65.2135 85.1979 66.3125 84.25 67.125C83.3125 67.9271 82.1406 68.3281 80.7344 68.3281C80.224 68.3281 79.625 68.2448 78.9375 68.0781C78.2604 67.9219 77.401 67.6458 76.3594 67.25L75.7344 70.2031L75.7656 70.2344L78.75 70.0312C78.9479 70.3125 79.0938 70.651 79.1875 71.0469C79.2917 71.4531 79.3802 71.9167 79.4531 72.4375L79.5 72.75C79.5 72.7917 79.2708 72.9844 78.8125 73.3281C78.3542 73.6823 77.7448 74.0052 76.9844 74.2969C76.224 74.599 75.349 74.75 74.3594 74.75C72.1198 74.75 71 73.5573 71 71.1719V70.0938C71 66.9167 71.0208 64.0885 71.0625 61.6094C71.1146 59.1198 71.2188 56.875 71.375 54.875L69.6719 54.5938ZM80.6719 64.1562C81.0469 62.75 81.2344 60.6198 81.2344 57.7656C81.2344 57.276 81.2083 56.8802 81.1562 56.5781C80.9167 56.276 80.5729 56.125 80.125 56.125C79.9792 56.25 79.4792 57.0729 78.625 58.5938C77.7708 60.1042 77.1406 61.2656 76.7344 62.0781V62.8281C77.3073 63.224 77.9688 63.5521 78.7188 63.8125C79.4688 64.0625 80.0417 64.1875 80.4375 64.1875C80.5312 64.1875 80.6094 64.1771 80.6719 64.1562ZM89.4844 58.9219C89.4844 57.1198 89.7865 55.5104 90.3906 54.0938C90.9948 52.6771 91.9271 51.5573 93.1875 50.7344C94.4583 49.901 96.0417 49.4844 97.9375 49.4844C98.9271 49.4844 99.9167 49.6042 100.906 49.8438C101.896 50.0729 102.734 50.4583 103.422 51C104.057 51.5104 104.516 52.1875 104.797 53.0312C105.089 53.8646 105.234 54.7917 105.234 55.8125C105.234 56.4896 105.177 57.1823 105.062 57.8906C104.938 58.099 104.693 58.375 104.328 58.7188C103.964 59.0521 103.536 59.3802 103.047 59.7031C102.557 60.026 102.083 60.276 101.625 60.4531C101.188 60.4844 100.734 60.5 100.266 60.5C99.4427 60.5 98.6094 60.4635 97.7656 60.3906C96.9219 60.3177 96.1823 60.2344 95.5469 60.1406C95.6302 61.026 95.901 61.7969 96.3594 62.4531C96.8177 63.1094 97.5469 63.4375 98.5469 63.4375C98.6406 63.4375 98.7917 63.4271 99 63.4062C99.6354 63.3438 100.375 63.1771 101.219 62.9062C102.073 62.625 102.922 62.3021 103.766 61.9375C104.161 62.3333 104.453 62.7292 104.641 63.125C104.828 63.5208 104.958 64.0885 105.031 64.8281C104.708 65.2031 104.182 65.6615 103.453 66.2031C102.734 66.7448 101.854 67.2344 100.812 67.6719C99.7708 68.099 98.6823 68.3125 97.5469 68.3125C95.8385 68.3125 94.375 67.901 93.1562 67.0781C91.9479 66.2448 91.0312 65.1198 90.4062 63.7031C89.7917 62.276 89.4844 60.6823 89.4844 58.9219ZM99.5469 55.3281C99.401 55.1719 99.1562 55.0521 98.8125 54.9688C98.4688 54.875 98.1094 54.8281 97.7344 54.8281C97.4323 54.8281 97.125 54.8542 96.8125 54.9062C96.5104 54.9583 96.3281 55.0156 96.2656 55.0781C95.9115 55.776 95.6875 56.5677 95.5938 57.4531L99.7656 57.0469L99.5469 55.3281ZM108.891 63.8125C108.891 63.3646 108.901 62.2656 108.922 60.5156C108.953 57.0781 108.969 55.1979 108.969 54.875L107.531 54.6406C107.333 54.0469 107.193 53.4896 107.109 52.9688C107.026 52.4479 106.984 51.9219 106.984 51.3906C106.984 51.1719 106.99 51.0052 107 50.8906C107.177 50.7344 107.453 50.5469 107.828 50.3281C108.203 50.1094 108.646 49.9167 109.156 49.75C109.667 49.5729 110.188 49.4844 110.719 49.4844C111.958 49.4844 112.854 49.7604 113.406 50.3125C113.969 50.8646 114.25 51.6719 114.25 52.7344C114.25 53.3802 114.167 54.2083 114 55.2188C113.844 56.2188 113.682 56.9323 113.516 57.3594L114.078 57.4531L115.016 53.9219C115.432 52.3281 115.953 51.1927 116.578 50.5156C117.203 49.8281 117.906 49.4844 118.688 49.4844C119.198 49.4844 119.703 49.5625 120.203 49.7188C120.714 49.875 121.104 50.0677 121.375 50.2969C121.667 50.9427 121.812 51.8021 121.812 52.875C121.812 53.625 121.74 54.3698 121.594 55.1094C121.448 55.8385 121.26 56.4271 121.031 56.875L117.75 56.4375C117.083 57.1458 116.375 58.1302 115.625 59.3906C114.875 60.6406 114.276 61.7917 113.828 62.8438L113.812 63.6562L116.844 62.9375C117.354 63.7188 117.651 64.6458 117.734 65.7188C117.734 65.7812 117.5 66.0365 117.031 66.4844C116.562 66.9323 115.943 67.349 115.172 67.7344C114.411 68.1094 113.536 68.2969 112.547 68.2969C111.526 68.2969 110.672 68.026 109.984 67.4844C109.307 66.9323 108.948 66.0052 108.906 64.7031C108.896 64.5469 108.891 64.25 108.891 63.8125ZM125.516 70.2656C125.589 70.0469 125.641 69.7656 125.672 69.4219C125.714 69.0885 125.724 68.7604 125.703 68.4375C125.672 67.6979 125.615 66.6823 125.531 65.3906C125.427 63.6406 125.349 62.1927 125.297 61.0469C125.245 59.901 125.219 58.8125 125.219 57.7812C125.219 57.4271 125.229 56.9479 125.25 56.3438L125.266 55.9688L123.188 55.6875C123.042 55.2083 122.943 54.7396 122.891 54.2812C122.849 53.8229 122.833 53.2656 122.844 52.6094C123.51 52.2552 124.427 51.9375 125.594 51.6562L125.656 51.4062C124.958 50.7812 124.406 50.099 124 49.3594C123.594 48.6198 123.391 47.8438 123.391 47.0312C123.391 46.0938 123.651 45.2969 124.172 44.6406C124.693 43.974 125.422 43.474 126.359 43.1406C127.307 42.8073 128.417 42.6406 129.688 42.6406C130.438 42.6406 131.188 42.6823 131.938 42.7656C132.698 42.8385 133.615 43.026 134.688 43.3281C134.833 43.7656 134.906 44.276 134.906 44.8594C134.906 45.5156 134.823 46.1979 134.656 46.9062C134.5 47.6042 134.281 48.2083 134 48.7188C132.99 48.3958 132.177 48.151 131.562 47.9844C130.958 47.8177 130.292 47.6823 129.562 47.5781C129.406 47.6094 129.26 47.6927 129.125 47.8281C129 47.9531 128.927 48.0729 128.906 48.1875C129 48.6667 129.198 49.224 129.5 49.8594C129.812 50.4948 130.161 51.0729 130.547 51.5938L134.891 50.7969C135.255 51.3385 135.438 52.1146 135.438 53.125C135.438 53.7396 135.37 54.3281 135.234 54.8906C135.109 55.4531 134.953 55.8385 134.766 56.0469C134.63 56.0573 134.432 56.0625 134.172 56.0625C133.161 56.0625 132.24 55.9375 131.406 55.6875C131.365 56.9167 131.328 57.7917 131.297 58.3125C131.286 58.7083 131.26 59.375 131.219 60.3125L131.125 62.8906C131.073 64.3802 131.021 65.6094 130.969 66.5781C130.917 67.5469 130.839 68.474 130.734 69.3594C130.641 70.2031 130.51 70.9219 130.344 71.5156C130.188 72.1198 129.943 72.6458 129.609 73.0938C128.786 74.1979 127.432 74.75 125.547 74.75C124.797 74.75 124.047 74.6042 123.297 74.3125C122.557 74.0312 121.984 73.5729 121.578 72.9375C121.557 72.3125 121.651 71.6823 121.859 71.0469C122.057 70.4219 122.359 69.8854 122.766 69.4375L125.516 70.2656ZM137.578 45.5781C137.578 44.6615 137.875 43.9167 138.469 43.3438C139.073 42.7708 140.031 42.4844 141.344 42.4844C142.656 42.4844 143.609 42.7708 144.203 43.3438C144.807 43.9167 145.109 44.6615 145.109 45.5781C145.109 46.099 144.927 46.5781 144.562 47.0156C144.208 47.4531 143.74 47.8021 143.156 48.0625C142.573 48.3125 141.969 48.4375 141.344 48.4375C140.667 48.4375 140.036 48.2917 139.453 48C138.88 47.6979 138.422 47.3229 138.078 46.875C137.745 46.4271 137.578 45.9948 137.578 45.5781ZM136.812 54.5156C136.677 54.0052 136.583 53.5417 136.531 53.125C136.479 52.6979 136.453 52.2552 136.453 51.7969L136.469 51.3594C136.688 51.0781 137.026 50.7969 137.484 50.5156C137.953 50.224 138.495 49.9792 139.109 49.7812C139.734 49.5833 140.38 49.4844 141.047 49.4844C142.505 49.4844 143.542 49.8125 144.156 50.4688C144.771 51.125 145.078 52.1458 145.078 53.5312C145.078 54.3646 144.958 55.4531 144.719 56.7969C144.49 58.1406 144.208 59.4479 143.875 60.7188C143.552 61.9792 143.271 62.8802 143.031 63.4219L143.062 63.4531L145.375 62.6094C145.792 62.9635 146.104 63.3542 146.312 63.7812C146.531 64.2083 146.672 64.7031 146.734 65.2656C146.734 65.3385 146.505 65.6406 146.047 66.1719C145.589 66.6927 144.979 67.1823 144.219 67.6406C143.469 68.0885 142.599 68.3125 141.609 68.3125C140.609 68.3125 139.797 68.0417 139.172 67.5C138.557 66.9583 138.25 66.0312 138.25 64.7188C138.25 63.1875 138.292 61.5625 138.375 59.8438C138.458 58.125 138.589 56.4583 138.766 54.8438L136.812 54.5156ZM147.609 47.5625C147.453 46.9271 147.349 46.401 147.297 45.9844C147.245 45.5573 147.224 45.0677 147.234 44.5156C147.453 44.2344 147.792 43.9531 148.25 43.6719C148.719 43.3802 149.26 43.1354 149.875 42.9375C150.5 42.7396 151.146 42.6406 151.812 42.6406C153.115 42.6406 154.115 42.9688 154.812 43.625C155.51 44.2812 155.859 45.25 155.859 46.5312C155.859 47.4479 155.781 48.9219 155.625 50.9531C155.469 52.9844 155.245 55.1458 154.953 57.4375C154.661 59.7188 154.328 61.7135 153.953 63.4219L153.984 63.4531L156.297 62.4844C157.109 63.1823 157.583 64.1094 157.719 65.2656C157.719 65.3385 157.484 65.6406 157.016 66.1719C156.547 66.6927 155.927 67.1823 155.156 67.6406C154.396 68.0885 153.521 68.3125 152.531 68.3125C151.5 68.3125 150.661 68.026 150.016 67.4531C149.38 66.8802 149.078 65.901 149.109 64.5156L149.141 61.7031C149.151 59.0365 149.177 56.6354 149.219 54.5C149.271 52.3646 149.375 50.1615 149.531 47.8906L147.609 47.5625Z" fill="white"/>
</svg>
