<svg width="34" height="34" viewBox="0 0 34 34" fill="none" xmlns="http://www.w3.org/2000/svg">
<path d="M18.0101 30.818H2.81815C2.56097 30.818 2.31432 30.7158 2.13247 30.5339C1.95061 30.3521 1.84845 30.1054 1.84845 29.8483V2.69675C1.84845 2.43957 1.95061 2.19292 2.13247 2.01107C2.31432 1.82922 2.56097 1.72705 2.81815 1.72705H29.9697C30.2268 1.72705 30.4735 1.82922 30.6553 2.01107C30.8372 2.19292 30.9394 2.43957 30.9394 2.69675V17.8887M22.8585 27.5856H27.707M27.707 27.5856H32.5555M27.707 27.5856V22.7371M27.707 27.5856V32.4341" stroke="white" stroke-opacity="0.8" stroke-width="1.93939" stroke-linecap="round" stroke-linejoin="round"/>
<path d="M12.9967 10.6368C12.8493 10.5525 12.6824 10.5084 12.5126 10.5088C12.3428 10.5092 12.1761 10.5542 12.0292 10.6393C11.8822 10.7244 11.7602 10.8466 11.6753 10.9936C11.5904 11.1407 11.5456 11.3075 11.5454 11.4773V21.0659C11.5453 21.2359 11.5899 21.4028 11.6747 21.5501C11.7595 21.6974 11.8815 21.8198 12.0285 21.9051C12.1755 21.9903 12.3423 22.0355 12.5122 22.036C12.6821 22.0365 12.8492 21.9924 12.9967 21.908L21.3846 17.1144C21.5331 17.0296 21.6565 16.9071 21.7423 16.7592C21.8281 16.6113 21.8733 16.4434 21.8733 16.2724C21.8733 16.1014 21.8281 15.9335 21.7423 15.7856C21.6565 15.6377 21.5331 15.5152 21.3846 15.4304L12.9967 10.6368V10.6368Z" stroke="white" stroke-opacity="0.8" stroke-width="1.93939" stroke-linecap="round" stroke-linejoin="round"/>
</svg>
