<svg width="6" height="20" viewBox="0 0 6 20" fill="none" xmlns="http://www.w3.org/2000/svg">
<path d="M0.515182 9.81806C0.515182 10.461 0.770593 11.0776 1.22523 11.5323C1.67986 11.9869 2.29648 12.2423 2.93942 12.2423C3.58237 12.2423 4.19899 11.9869 4.65362 11.5323C5.10826 11.0776 5.36367 10.461 5.36367 9.81806C5.36367 9.17512 5.10826 8.5585 4.65362 8.10387C4.19899 7.64923 3.58237 7.39382 2.93942 7.39382C2.29648 7.39382 1.67986 7.64923 1.22523 8.10387C0.770593 8.5585 0.515182 9.17512 0.515182 9.81806ZM0.515182 2.54534C0.515182 3.18829 0.770593 3.8049 1.22523 4.25954C1.67986 4.71417 2.29648 4.96958 2.93942 4.96958C3.58237 4.96958 4.19899 4.71417 4.65362 4.25954C5.10826 3.8049 5.36367 3.18829 5.36367 2.54534C5.36367 1.90239 5.10826 1.28577 4.65362 0.831138C4.19899 0.376504 3.58237 0.121094 2.93942 0.121094C2.29648 0.121094 1.67986 0.376504 1.22523 0.831138C0.770593 1.28577 0.515182 1.90239 0.515182 2.54534ZM0.515182 17.0908C0.515182 17.7337 0.770593 18.3504 1.22523 18.805C1.67986 19.2596 2.29648 19.515 2.93942 19.515C3.58237 19.515 4.19899 19.2596 4.65362 18.805C5.10826 18.3504 5.36367 17.7337 5.36367 17.0908C5.36367 16.4478 5.10826 15.8312 4.65362 15.3766C4.19899 14.922 3.58237 14.6665 2.93942 14.6665C2.29648 14.6665 1.67986 14.922 1.22523 15.3766C0.770593 15.8312 0.515182 16.4478 0.515182 17.0908Z" fill="white"/>
</svg>
