<svg width="36" height="36" viewBox="0 0 36 36" fill="none" xmlns="http://www.w3.org/2000/svg">
<path fill-rule="evenodd" clip-rule="evenodd" d="M36 18C36 27.9411 27.9411 36 18 36C8.05887 36 0 27.9411 0 18C0 8.05887 8.05887 0 18 0C27.9411 0 36 8.05887 36 18ZM18.0001 9.99998C17.0112 9.99998 16.0445 10.2932 15.2222 10.8426C14.4 11.392 13.7591 12.1729 13.3807 13.0866C13.0022 14.0002 12.9032 15.0055 13.0961 15.9754C13.2891 16.9453 13.7653 17.8363 14.4645 18.5355C15.1638 19.2348 16.0547 19.711 17.0246 19.9039C17.9945 20.0968 18.9999 19.9978 19.9135 19.6194C20.8271 19.2409 21.608 18.6001 22.1574 17.7778C22.7068 16.9556 23.0001 15.9889 23.0001 15C23.0001 13.6739 22.4733 12.4021 21.5356 11.4644C20.5979 10.5268 19.3262 9.99998 18.0001 9.99998ZM10.222 6.35943C12.5243 4.82109 15.2311 4 18 4C21.7117 4.00423 25.2702 5.48059 27.8948 8.10518C30.5194 10.7298 31.9958 14.2883 32 18C32 20.7689 31.1789 23.4757 29.6406 25.778C28.1022 28.0803 25.9157 29.8747 23.3576 30.9343C20.7994 31.9939 17.9845 32.2712 15.2687 31.731C12.553 31.1908 10.0584 29.8574 8.10051 27.8995C6.14258 25.9416 4.80921 23.447 4.26901 20.7313C3.72882 18.0155 4.00607 15.2006 5.06569 12.6424C6.12532 10.0843 7.91973 7.89776 10.222 6.35943ZM24.5039 23.4416C25.4377 24.363 25.9721 25.6143 25.992 26.926H25.993C27.8064 25.3067 29.0853 23.1749 29.6602 20.8127C30.2351 18.4505 30.0789 15.9693 29.2124 13.6979C28.3458 11.4264 26.8098 9.47167 24.8076 8.09257C22.8055 6.71347 20.4317 5.97503 18.0005 5.97503C15.5693 5.97503 13.1955 6.71347 11.1934 8.09257C9.19123 9.47167 7.65518 11.4264 6.78864 13.6979C5.92211 15.9693 5.76594 18.4505 6.34084 20.8127C6.91574 23.1749 8.19457 25.3067 10.008 26.926C10.0279 25.6143 10.5623 24.363 11.4961 23.4416C12.4298 22.5202 13.6882 22.0025 15 22H21C22.3118 22.0025 23.5702 22.5202 24.5039 23.4416Z" fill="#D92671"/>
</svg>
