<svg width="18" height="18" viewBox="0 0 18 18" fill="none" xmlns="http://www.w3.org/2000/svg">
<path d="M12.75 16.5H5.25C4.85218 16.5 4.47064 16.342 4.18934 16.0607C3.90804 15.7794 3.75 15.3978 3.75 15V5.25H2.25V3.75H5.25V3C5.25 2.60218 5.40804 2.22064 5.68934 1.93934C5.97064 1.65804 6.35218 1.5 6.75 1.5H11.25C11.6478 1.5 12.0294 1.65804 12.3107 1.93934C12.592 2.22064 12.75 2.60218 12.75 3V3.75H15.75V5.25H14.25V15C14.25 15.3978 14.092 15.7794 13.8107 16.0607C13.5294 16.342 13.1478 16.5 12.75 16.5ZM5.25 5.25V15H12.75V5.25H5.25ZM6.75 3V3.75H11.25V3H6.75ZM11.25 13.5H9.75V6.75H11.25V13.5ZM8.25 13.5H6.75V6.75H8.25V13.5Z" fill="#FBFBFB"/>
</svg>
