<svg width="28" height="28" viewBox="0 0 28 28" fill="none" xmlns="http://www.w3.org/2000/svg">
<path d="M25.7633 13.2945C23.1711 7.83398 19.2528 5.08594 14 5.08594C8.74457 5.08594 4.82894 7.83398 2.23675 13.2973C2.13278 13.5174 2.07886 13.7579 2.07886 14.0014C2.07886 14.2448 2.13278 14.4853 2.23675 14.7055C4.82894 20.166 8.7473 22.9141 14 22.9141C19.2555 22.9141 23.1711 20.166 25.7633 14.7027C25.9739 14.2598 25.9739 13.7457 25.7633 13.2945V13.2945ZM14 20.9453C9.58949 20.9453 6.36019 18.7086 4.08246 14C6.36019 9.29141 9.58949 7.05469 14 7.05469C18.4106 7.05469 21.6399 9.29141 23.9176 14C21.6426 18.7086 18.4133 20.9453 14 20.9453ZM13.8907 9.1875C11.2328 9.1875 9.07816 11.3422 9.07816 14C9.07816 16.6578 11.2328 18.8125 13.8907 18.8125C16.5485 18.8125 18.7032 16.6578 18.7032 14C18.7032 11.3422 16.5485 9.1875 13.8907 9.1875ZM13.8907 17.0625C12.1981 17.0625 10.8282 15.6926 10.8282 14C10.8282 12.3074 12.1981 10.9375 13.8907 10.9375C15.5832 10.9375 16.9532 12.3074 16.9532 14C16.9532 15.6926 15.5832 17.0625 13.8907 17.0625Z" fill="white"/>
</svg>
